<svg width="26" height="36" viewBox="0 0 26 36" fill="none" xmlns="http://www.w3.org/2000/svg">
<path d="M0.125977 36V0.453125H10.1602C13.2526 0.453125 15.987 1.13672 18.3633 2.50391C20.7396 3.87109 22.5706 5.81608 23.8564 8.33887C25.1585 10.8617 25.8177 13.7588 25.834 17.0303V19.3008C25.834 22.6536 25.1829 25.5915 23.8809 28.1143C22.5951 30.637 20.7477 32.5739 18.3389 33.9248C15.9463 35.2757 13.1549 35.9674 9.96484 36H0.125977ZM4.81348 4.31055V32.167H9.74512C13.3584 32.167 16.166 31.0439 18.168 28.7979C20.1862 26.5518 21.1953 23.3535 21.1953 19.2031V17.1279C21.1953 13.0915 20.2432 9.95833 18.3389 7.72852C16.4508 5.48242 13.7653 4.3431 10.2822 4.31055H4.81348Z" fill="url(#paint0_linear)"/>
<defs>
<linearGradient id="paint0_linear" x1="12.5" y1="-11" x2="12.5" y2="48" gradientUnits="userSpaceOnUse">
<stop stop-color="#23B5D3"/>
<stop offset="0.494792" stop-color="#EA526F"/>
<stop offset="1" stop-color="#279AF1"/>
</linearGradient>
</defs>
</svg>
