<svg width="60" height="37" viewBox="0 0 60 37" fill="none" xmlns="http://www.w3.org/2000/svg">
<path d="M26.1504 0.453125V24.623C26.1341 27.9759 25.0762 30.7184 22.9766 32.8506C20.8932 34.9827 18.0612 36.179 14.4805 36.4395L13.2354 36.4883C9.34538 36.4883 6.24479 35.4385 3.93359 33.3389C1.6224 31.2393 0.450521 28.3503 0.417969 24.6719V0.453125H5.05664V24.5254C5.05664 27.097 5.76465 29.099 7.18066 30.5312C8.59668 31.9473 10.6149 32.6553 13.2354 32.6553C15.8883 32.6553 17.9147 31.9473 19.3145 30.5312C20.7305 29.1152 21.4385 27.1214 21.4385 24.5498V0.453125H26.1504ZM45.1445 14.0762L53.665 0.453125H59.1826L47.9521 18.0801L59.4512 36H53.8848L45.1445 22.1328L36.3555 36H30.8135L42.3369 18.0801L31.082 0.453125H36.5752L45.1445 14.0762Z" fill="url(#paint0_linear)"/>
<defs>
<linearGradient id="paint0_linear" x1="29" y1="-11" x2="29" y2="48" gradientUnits="userSpaceOnUse">
<stop stop-color="#23B5D3"/>
<stop offset="0.494792" stop-color="#EA526F"/>
<stop offset="1" stop-color="#279AF1"/>
</linearGradient>
</defs>
</svg>
