<svg width="23" height="27" viewBox="0 0 23 27" fill="none" xmlns="http://www.w3.org/2000/svg">
<path d="M4.3125 7.10526C4.3125 3.18113 7.53045 0 11.5 0C15.4695 0 18.6875 3.18113 18.6875 7.10526C18.6875 11.0294 15.4695 14.2105 11.5 14.2105C7.53045 14.2105 4.3125 11.0294 4.3125 7.10526ZM11.5 11.3684C13.8817 11.3684 15.8125 9.45974 15.8125 7.10526C15.8125 4.75079 13.8817 2.84211 11.5 2.84211C9.11827 2.84211 7.1875 4.75079 7.1875 7.10526C7.1875 9.45974 9.11827 11.3684 11.5 11.3684Z" fill="#2E3A59"/>
<path d="M3.36827 18.9613C1.2116 21.0933 0 23.9849 0 27H2.875C2.875 24.7387 3.7837 22.57 5.4012 20.971C7.01871 19.372 9.21251 18.4737 11.5 18.4737C13.7875 18.4737 15.9813 19.372 17.5988 20.971C19.2163 22.57 20.125 24.7387 20.125 27H23C23 23.9849 21.7884 21.0933 19.6317 18.9613C17.4751 16.8293 14.55 15.6316 11.5 15.6316C8.45001 15.6316 5.52494 16.8293 3.36827 18.9613Z" fill="#2E3A59"/>
</svg>
